<?xml version="1.0" encoding="UTF-8" standalone="no"?>
<!-- Created with Inkscape (http://www.inkscape.org/) -->

<svg
   xmlns:dc="http://purl.org/dc/elements/1.1/"
   xmlns:cc="http://creativecommons.org/ns#"
   xmlns:rdf="http://www.w3.org/1999/02/22-rdf-syntax-ns#"
   xmlns:svg="http://www.w3.org/2000/svg"
   xmlns="http://www.w3.org/2000/svg"
   version="1.2"
   width="792pt"
   height="612pt"
   id="svg2985">
  <defs
     id="defs2987" />
  <metadata
     id="metadata2991">
    <rdf:RDF>
      <cc:Work
         rdf:about="">
        <dc:format>image/svg+xml</dc:format>
        <dc:type
           rdf:resource="http://purl.org/dc/dcmitype/StillImage" />
        <dc:title></dc:title>
      </cc:Work>
    </rdf:RDF>
  </metadata>
  <g
     id="layer1">
    <path
       d="m 605.87048,408.31821 a 112.3792,107.49315 0 1 1 -224.75841,0 112.3792,107.49315 0 1 1 224.75841,0 z"
       transform="matrix(1.3611772,0,0,1.3611772,-169.00848,-123.39087)"
       id="path2994"
       style="fill:#008080;fill-rule:evenodd;stroke:#000000;stroke-width:0;stroke-linecap:butt;stroke-linejoin:miter;stroke-miterlimit:4;stroke-opacity:1;stroke-dasharray:none" />
    <flowRoot
       transform="matrix(1.3611772,0,0,1.3611772,-178.03374,-105.813)"
       id="flowRoot3000"
       xml:space="preserve"
       style="font-size:32px;font-style:normal;font-weight:normal;text-align:center;line-height:125%;letter-spacing:0px;word-spacing:0px;text-anchor:middle;fill:#f9f9f9;fill-opacity:1;stroke:none;font-family:Sans"><flowRegion
         id="flowRegion3002"><rect
           width="177.52658"
           height="83.062897"
           x="410.42838"
           y="351.31427"
           id="rect3004"
           style="font-size:32px;text-align:center;text-anchor:middle;fill:#f9f9f9" /></flowRegion><flowPara
         id="flowPara3006">Internal</flowPara><flowPara
         id="flowPara3053">Storage</flowPara></flowRoot>    <path
       d="m 384.36943,313.85452 a 52.932232,53.746574 0 1 1 -105.86447,0 52.932232,53.746574 0 1 1 105.86447,0 z"
       transform="matrix(1.3611772,0,0,1.3611772,-197.82854,-123.39087)"
       id="path3010"
       style="fill:#008000;fill-rule:evenodd;stroke:#000000;stroke-width:0;stroke-linecap:butt;stroke-linejoin:miter;stroke-miterlimit:4;stroke-opacity:1;stroke-dasharray:none" />
    <path
       d="m 384.36943,313.85452 a 52.932232,53.746574 0 1 1 -105.86447,0 52.932232,53.746574 0 1 1 105.86447,0 z"
       transform="matrix(1.3611772,0,0,1.3611772,49.358894,-267.49117)"
       id="path3010-5"
       style="fill:#808000;fill-rule:evenodd;stroke:#000000;stroke-width:0;stroke-linecap:butt;stroke-linejoin:miter;stroke-miterlimit:4;stroke-opacity:1;stroke-dasharray:none" />
    <path
       d="m 384.36943,313.85452 a 52.932232,53.746574 0 1 1 -105.86447,0 52.932232,53.746574 0 1 1 105.86447,0 z"
       transform="matrix(1.3611772,0,0,1.3611772,299.8717,-132.25858)"
       id="path3010-1"
       style="fill:#ffff00;fill-rule:evenodd;stroke:#000000;stroke-width:0;stroke-linecap:butt;stroke-linejoin:miter;stroke-miterlimit:4;stroke-opacity:1;stroke-dasharray:none" />
    <path
       d="m 384.36943,313.85452 a 52.932232,53.746574 0 1 1 -105.86447,0 52.932232,53.746574 0 1 1 105.86447,0 z"
       transform="matrix(1.3611772,0,0,1.3611772,242.2316,206.93133)"
       id="path3010-2"
       style="fill:#000080;fill-rule:evenodd;stroke:#000000;stroke-width:0;stroke-linecap:butt;stroke-linejoin:miter;stroke-miterlimit:4;stroke-opacity:1;stroke-dasharray:none" />
    <path
       d="m 384.36943,313.85452 a 52.932232,53.746574 0 1 1 -105.86447,0 52.932232,53.746574 0 1 1 105.86447,0 z"
       transform="matrix(1.3611772,0,0,1.3611772,-136.86303,206.93133)"
       id="path3010-4"
       style="fill:#a02c2c;fill-rule:evenodd;stroke:#000000;stroke-width:0;stroke-linecap:butt;stroke-linejoin:miter;stroke-miterlimit:4;stroke-opacity:1;stroke-dasharray:none" />
    <path
       d="m -125.35921,214.33292 60.000003,0 0,-15 30,25 -30,25 0,-15 -60.000003,0 z"
       id="path2999"
       style="fill:none;stroke:#000000;stroke-width:1px;stroke-linecap:butt;stroke-linejoin:miter;stroke-opacity:1" />
    <path
       d="m -45.340417,279.84422 0,-7.1886 -29.92707,0 -29.927073,0 0,-9.16135 0,-9.16135 29.917683,0 29.91767,0 0.11119,-7.07548 0.11119,-7.07549 13.61517,11.34609 c 7.48835,6.24035 13.7749,11.50581 13.97011,11.70102 0.2018,0.20179 -5.40901,5.14893 -13.00442,11.4662 -7.34764,6.1112 -13.68,11.38719 -14.0719,11.72442 -0.67486,0.58071 -0.71255,0.23295 -0.71255,-6.57546 z"
       id="path3001"
       style="fill:#333333;stroke:none" />
    <path
       d="m 318.56338,315.33828 c -1.52893,3.06432 -3.42989,6.7081 -4.22437,8.0973 l -1.44433,2.52594 35.34418,20.25374 35.34417,20.25373 -6.20012,10.81966 -6.20012,10.81965 -35.34419,-20.25372 c -19.43931,-11.13958 -35.41028,-20.21977 -35.49106,-20.17823 -0.0811,0.0411 -2.29416,3.52783 -4.91862,7.74732 l -4.77175,7.67177 -8.1684,-21.97395 c -4.49262,-12.08566 -8.12547,-22.19975 -8.07298,-22.47576 0.0524,-0.27602 4.55661,-1.36415 10.00921,-2.41807 11.1477,-2.15475 35.11938,-6.42204 36.20751,-6.44545 0.49087,-0.0109 -0.14947,1.70904 -2.06896,5.55618 l 0,0 z"
       id="path3003"
       style="fill:#333333" />
    <path
       d="m 523.61223,223.24469 c -3.41712,0.22574 -7.52224,0.42256 -9.12251,0.4374 l -2.9096,0.0272 0.34239,40.73461 0.34241,40.73459 -12.46978,0.10481 -12.46977,0.10481 -0.34243,-40.73461 c -0.1883,-22.40405 -0.40507,-40.77454 -0.48169,-40.82333 -0.0764,-0.0493 -4.20337,-0.20116 -9.17055,-0.33858 l -9.03125,-0.2499 14.85224,-18.13803 c 8.16872,-9.97592 15.06887,-18.21488 15.33366,-18.30878 0.26476,-0.0941 3.47653,3.24613 7.13718,7.42239 7.48415,8.53825 23.26164,27.08338 23.83079,28.01109 0.25703,0.41833 -1.55105,0.7331 -5.8411,1.01653 l 0,0 z"
       id="path3003-4"
       style="fill:#333333" />
    <path
       d="m 695.22683,350.0603 c -2.01499,-2.76903 -4.3728,-6.13526 -5.23958,-7.48052 l -1.5762,-2.44584 -34.26251,22.03421 -34.26247,22.03422 -6.74517,-10.48852 -6.74515,-10.48851 34.26246,-22.03425 c 18.8444,-12.11882 34.26282,-22.10854 34.26318,-22.19937 9.1e-4,-0.0909 -2.07372,-3.66176 -4.60906,-7.93538 l -4.60969,-7.77024 23.26588,2.87675 c 12.79623,1.58222 23.44652,3.01893 23.66728,3.19271 0.22086,0.17368 -0.88913,4.67258 -2.46647,9.99739 -3.22483,10.88645 -10.4844,34.12757 -10.96505,35.10406 -0.21653,0.44066 -1.44788,-0.92022 -3.97764,-4.3966 l 0,0 z"
       id="path3003-4-1"
       style="fill:#333333" />
    <path
       d="m 624.0869,604.80154 c 2.47076,-2.37131 5.4868,-5.16313 6.70233,-6.20407 l 2.20993,-1.89281 -26.46985,-30.96405 -26.46986,-30.96403 9.4788,-8.103 9.47878,-8.10301 26.46988,30.96401 c 14.55843,17.03025 26.54353,30.95431 26.63359,30.94236 0.0902,-0.0109 3.34731,-2.55036 7.23833,-5.64093 l 7.07464,-5.61919 0.2995,23.44114 c 0.16471,12.89264 0.18307,23.63936 0.0408,23.88163 -0.14219,0.24233 -4.74995,-0.24837 -10.23925,-1.09032 -11.22282,-1.72132 -35.23278,-5.76765 -36.26535,-6.11166 -0.46592,-0.15489 0.71573,-1.55915 3.81762,-4.53625 l 0,0 z"
       id="path3003-4-1-1"
       style="fill:#333333" />
    <path
       d="m 347.77554,570.42588 c 2.6966,2.11094 5.88653,4.7023 7.08876,5.75857 l 2.18605,1.92034 26.91374,-30.579 26.91373,-30.57901 9.36091,8.23892 9.36091,8.23888 -26.9137,30.57904 c -14.80259,16.81847 -26.8937,30.65056 -26.86914,30.73803 0.0235,0.0878 2.99769,2.95342 6.60699,6.36876 l 6.56235,6.20979 -23.16371,3.6083 c -12.74004,1.98457 -23.37638,3.52107 -23.63631,3.41447 -0.25998,-0.10658 -0.4252,-4.73739 -0.36723,-10.29058 0.11842,-11.35344 0.73204,-35.69425 0.92672,-36.76507 0.0875,-0.48312 1.64463,0.48828 5.03009,3.13845 l 0,0 z"
       id="path3003-4-1-1-0"
       style="fill:#333333" />
    <flowRoot
       transform="matrix(1.3611772,0,0,1.3611772,-125.11556,-70.092316)"
       id="flowRoot3077"
       xml:space="preserve"
       style="font-size:28px;font-style:normal;font-weight:normal;line-height:125%;letter-spacing:0px;word-spacing:0px;fill:#000000;fill-opacity:1;stroke:none;font-family:Sans"><flowRegion
         id="flowRegion3079"><rect
           width="123.22692"
           height="48.369431"
           x="240.69559"
           y="188.02159"
           id="rect3081"
           style="font-size:28px" /></flowRegion><flowPara
         id="flowPara3083">Notes</flowPara></flowRoot>    <flowRoot
       transform="matrix(1.3611772,0,0,1.3611772,-128.25076,-92.03878)"
       id="flowRoot3085"
       xml:space="preserve"
       style="font-size:28px;font-style:normal;font-weight:normal;line-height:125%;letter-spacing:0px;word-spacing:0px;fill:#000000;fill-opacity:1;stroke:none;font-family:Sans"><flowRegion
         id="flowRegion3087"><rect
           width="116.31702"
           height="48.369438"
           x="426.11179"
           y="93.585999"
           id="rect3089"
           style="font-size:28px" /></flowRegion><flowPara
         id="flowPara3091">Blogs</flowPara></flowRoot>    <flowRoot
       transform="matrix(1.3611772,0,0,1.3611772,-118.84513,-90.471174)"
       id="flowRoot3093"
       xml:space="preserve"
       style="font-size:28px;font-style:normal;font-weight:normal;line-height:125%;letter-spacing:0px;word-spacing:0px;fill:#000000;fill-opacity:1;stroke:none;font-family:Sans"><flowRegion
         id="flowRegion3095"><rect
           width="184.2646"
           height="48.36945"
           x="628.8028"
           y="191.47655"
           id="rect3097"
           style="font-size:28px" /></flowRegion><flowPara
         id="flowPara3099">QA</flowPara></flowRoot>    <flowRoot
       transform="matrix(1.3611772,0,0,1.3611772,-170.57608,-151.60776)"
       id="flowRoot3101"
       xml:space="preserve"
       style="font-size:28px;font-style:normal;font-weight:normal;line-height:125%;letter-spacing:0px;word-spacing:0px;fill:#333333;fill-opacity:1;stroke:none;font-family:Sans"><flowRegion
         id="flowRegion3103"><rect
           width="196.9328"
           height="103.64883"
           x="614.98297"
           y="437.93039"
           id="rect3105"
           style="font-size:28px;fill:#333333" /></flowRegion><flowPara
         id="flowPara3107">status updates</flowPara></flowRoot>    <flowRoot
       transform="matrix(1.3611772,0,0,1.3611772,-169.00848,-123.39087)"
       id="flowRoot3109"
       xml:space="preserve"
       style="font-size:20px;font-style:normal;font-weight:normal;line-height:125%;letter-spacing:0px;word-spacing:0px;fill:#000000;fill-opacity:1;stroke:none;font-family:Sans"><flowRegion
         id="flowRegion3111"><rect
           width="147.41167"
           height="74.857498"
           rx="0"
           ry="0"
           x="237.24063"
           y="450.5986"
           id="rect3113"
           style="font-size:20px" /></flowRegion><flowPara
         id="flowPara3115">SVG interactive image</flowPara></flowRoot>    <flowRoot
       id="flowRoot3117"
       xml:space="preserve"
       style="font-size:20px;font-style:normal;font-weight:normal;line-height:125%;letter-spacing:0px;word-spacing:0px;fill:#000000;fill-opacity:1;stroke:none;font-family:Sans"><flowRegion
         id="flowRegion3119"><rect
           width="351.2543"
           height="232.63391"
           x="600.01147"
           y="47.519863"
           id="rect3121"
           style="font-size:20px" /></flowRegion><flowPara
         id="flowPara3395"
         style="font-size:14px" /></flowRoot>    <flowRoot
       id="flowRoot3151"
       xml:space="preserve"
       style="font-size:40px;font-style:normal;font-weight:normal;line-height:125%;letter-spacing:0px;word-spacing:0px;fill:#000000;fill-opacity:1;stroke:none;font-family:Sans"><flowRegion
         id="flowRegion3153"><rect
           width="59.885983"
           height="168.14142"
           x="629.95447"
           y="287.06378"
           id="rect3155" /></flowRegion><flowPara
         id="flowPara3157" /></flowRoot>    <flowRoot
       id="flowRoot3403"
       xml:space="preserve"
       style="font-size:40px;font-style:normal;font-weight:normal;line-height:125%;letter-spacing:0px;word-spacing:0px;fill:#000000;fill-opacity:1;stroke:none;font-family:Sans"><flowRegion
         id="flowRegion3405"><rect
           width="23.03307"
           height="146.25999"
           x="613.8313"
           y="288.21545"
           id="rect3407" /></flowRegion><flowPara
         id="flowPara3409" /></flowRoot>  </g>
</svg>
